<?xml version="1.0" standalone="no"?>
<!DOCTYPE svg PUBLIC "-//W3C//DTD SVG 20010904//EN"
 "http://www.w3.org/TR/2001/REC-SVG-20010904/DTD/svg10.dtd">
<svg version="1.0" xmlns="http://www.w3.org/2000/svg"
 width="700.000000pt" height="700.000000pt" viewBox="0 0 700.000000 700.000000"
 preserveAspectRatio="xMidYMid meet">
<metadata>
Created by potrace 1.11, written by Peter Selinger 2001-2013
</metadata>
<g transform="translate(0.000000,700.000000) scale(0.100000,-0.100000)"
fill="#000000" stroke="none">
<path d="M2705 6991 c-46 -5 -62 -11 -70 -26 -5 -11 -19 -30 -30 -41 -77 -80
-105 -114 -105 -127 0 -8 -13 -26 -29 -40 -17 -14 -27 -28 -24 -31 4 -3 -3 -6
-14 -6 -20 0 -51 -27 -46 -39 2 -3 -7 -6 -20 -6 -18 0 -23 -7 -25 -33 -2 -18
-10 -36 -18 -39 -23 -8 -28 4 -10 22 20 21 20 31 -1 39 -18 7 -35 -12 -28 -31
5 -14 -26 -26 -47 -18 -9 4 -18 -1 -21 -9 -4 -9 -16 -16 -27 -16 -29 0 -62 33
-54 53 4 11 1 17 -9 17 -10 0 -17 -11 -19 -32 -2 -25 -9 -33 -33 -41 -16 -5
-37 -15 -45 -22 -8 -7 -37 -21 -65 -30 -50 -16 -115 -65 -115 -85 0 -6 -5 -8
-11 -4 -8 4 -9 0 -4 -15 11 -35 9 -82 -4 -90 -9 -6 -9 -15 -1 -36 6 -15 8 -30
5 -33 -3 -4 -8 4 -12 16 -3 12 -9 19 -14 16 -5 -3 -9 0 -9 5 0 6 -7 11 -15 11
-19 0 -19 -15 1 -46 10 -14 23 -23 30 -20 10 4 14 -3 14 -19 0 -14 -2 -25 -5
-25 -11 0 -45 35 -45 47 0 6 -4 15 -10 18 -13 8 -2 -51 17 -88 8 -15 21 -31
29 -34 17 -6 19 -39 2 -50 -28 -17 -37 -11 -32 20 4 30 4 30 -7 10 -7 -13 -20
-23 -29 -23 -22 0 -72 -39 -65 -50 7 -12 -31 -97 -47 -103 -7 -2 -9 -8 -5 -13
5 -5 17 1 27 14 10 12 25 22 34 22 18 0 21 -11 7 -25 -4 -6 -13 -29 -18 -52
-8 -33 -8 -46 3 -60 16 -22 18 -79 3 -89 -8 -4 -7 -9 2 -15 11 -7 11 -9 -1 -9
-9 0 -21 5 -28 12 -7 7 -12 8 -12 4 0 -5 -7 -3 -15 4 -18 15 -16 17 -20 -40
-1 -25 2 -50 7 -57 6 -8 6 -18 0 -29 -7 -13 -11 -7 -16 30 -4 25 -10 46 -14
46 -12 0 -31 -53 -34 -92 -2 -39 -14 -50 -25 -22 -4 12 -10 8 -24 -15 -10 -17
-22 -31 -27 -31 -33 0 -43 77 -17 126 8 16 15 25 15 19 0 -11 20 16 20 28 0
14 -27 7 -45 -13 -13 -15 -15 -20 -4 -20 8 0 4 -6 -9 -16 -25 -17 -28 -44 -9
-75 10 -17 9 -22 -6 -34 -10 -7 -18 -16 -18 -19 4 -31 -2 -46 -20 -51 -30 -10
-23 -61 8 -58 22 3 49 -29 39 -46 -11 -17 -23 -91 -15 -85 12 7 11 -7 0 -25
-6 -9 -6 -22 -1 -31 7 -13 2 -19 -26 -29 -38 -14 -45 -28 -13 -27 15 1 23 -6
25 -21 2 -13 -1 -23 -6 -23 -6 0 -10 -7 -10 -15 0 -17 -16 -20 -25 -5 -8 13
-25 13 -25 1 0 -5 13 -15 30 -23 35 -15 39 -29 9 -25 -12 1 -24 -4 -26 -11 -3
-8 1 -10 11 -6 23 9 49 -15 36 -31 -8 -9 -7 -14 2 -18 9 -3 7 -9 -7 -20 -11
-8 -23 -13 -27 -11 -5 3 -8 0 -8 -7 0 -7 -10 -9 -25 -7 -22 5 -25 2 -25 -22 0
-24 3 -27 25 -22 14 2 25 0 25 -7 0 -5 -6 -8 -14 -5 -21 8 -27 -9 -12 -37 8
-16 10 -33 5 -47 -5 -14 -4 -22 2 -22 6 0 7 -5 3 -11 -13 -21 18 -59 48 -59
15 0 28 -4 28 -10 0 -5 -7 -7 -15 -4 -22 9 -30 -24 -11 -45 10 -11 19 -33 21
-50 2 -17 11 -38 20 -47 16 -16 19 -33 9 -58 -11 -28 -29 -17 -52 33 -26 58
-27 71 -6 71 8 0 12 5 9 10 -10 17 -35 11 -35 -8 0 -10 -5 -23 -11 -29 -30
-30 39 -153 86 -153 11 0 30 -8 41 -18 18 -14 22 -32 28 -112 5 -74 10 -98 23
-108 16 -11 16 -14 3 -23 -13 -8 -13 -11 1 -19 10 -5 20 -30 23 -55 4 -25 12
-45 18 -45 6 0 17 -8 25 -17 17 -22 63 -113 63 -126 0 -4 10 -23 23 -40 12
-18 23 -39 25 -47 2 -8 8 -18 14 -21 6 -4 8 -11 4 -17 -3 -6 5 -19 18 -29 22
-18 23 -21 10 -53 -8 -18 -12 -35 -9 -38 3 -3 29 0 57 6 29 6 77 14 106 18 53
7 54 7 41 -15 -8 -11 -21 -21 -29 -22 -9 0 -11 -2 -3 -5 7 -3 10 -11 7 -19 -3
-7 -1 -16 5 -20 15 -9 14 -41 -4 -74 -16 -33 -10 -45 15 -31 15 8 19 5 24 -16
4 -14 4 -40 1 -57 -5 -27 0 -74 19 -167 9 -45 30 -100 39 -100 6 0 8 26 4 65
-4 55 -3 64 9 54 12 -9 14 -3 15 37 l1 49 23 -70 c33 -102 110 -293 141 -350
36 -65 183 -211 257 -254 31 -18 85 -44 120 -57 l62 -23 -41 0 c-97 -2 -287
45 -383 94 -60 30 -73 32 -40 6 43 -33 127 -71 219 -97 89 -26 94 -26 366 -22
159 2 261 -1 242 -5 -18 -5 -127 -11 -243 -14 -171 -4 -213 -8 -231 -21 l-21
-17 21 -10 c12 -6 25 -20 31 -33 5 -12 19 -22 30 -22 19 -1 19 -2 3 -14 -15
-11 -16 -15 -4 -32 10 -14 11 -23 4 -32 -8 -9 -7 -19 2 -36 6 -13 9 -33 5 -45
-5 -16 -3 -20 9 -15 18 7 20 -5 7 -38 -5 -13 -15 -42 -22 -66 -11 -38 -10 -44
5 -55 14 -10 15 -17 6 -41 -9 -24 -7 -32 7 -48 21 -23 46 -38 75 -43 26 -5 48
-24 48 -41 0 -17 12 -18 29 -1 11 10 12 9 6 -3 -4 -8 -14 -22 -22 -31 -12 -15
-12 -22 1 -54 9 -20 25 -39 36 -42 11 -3 20 -9 20 -14 0 -5 5 -9 10 -9 6 0 10
7 10 16 0 9 6 14 13 11 6 -2 11 -17 10 -33 -2 -21 0 -25 7 -15 7 13 13 13 42
-1 18 -9 47 -22 63 -29 17 -7 37 -18 45 -25 19 -15 134 -54 159 -54 11 0 31
14 44 31 24 30 25 31 63 19 22 -7 54 -19 73 -27 38 -16 171 -30 171 -19 0 5
-9 19 -20 33 -25 32 -26 53 -2 53 10 0 23 5 30 12 6 6 49 15 94 19 46 4 125
14 177 23 51 8 180 18 287 22 200 7 220 13 159 43 -25 12 -37 12 -91 -2 -50
-14 -76 -15 -139 -7 -48 6 -100 6 -134 1 -64 -10 -267 2 -326 19 -56 17 -63
26 -37 53 20 20 32 22 130 22 l107 0 1 50 c1 28 4 58 9 68 4 10 1 27 -9 42
-17 27 -31 31 -41 15 -10 -16 -45 -12 -45 5 0 8 -7 15 -15 15 -18 0 -21 66 -3
72 6 2 -4 15 -23 28 -19 13 -74 56 -124 96 -49 40 -115 83 -145 96 -63 28 -77
43 -86 87 -6 27 -4 33 15 38 13 3 20 11 17 19 -8 20 11 17 24 -3 11 -17 11
-17 6 0 -3 9 -1 17 4 17 6 0 10 9 10 20 0 11 5 20 12 20 6 0 8 3 5 6 -4 4 2
19 13 34 20 28 60 123 60 142 0 7 -18 -6 -41 -27 l-41 -40 46 89 c47 92 96
147 82 93 -11 -44 11 -31 34 19 25 59 60 170 60 195 0 26 -22 24 -50 -6 -13
-14 -27 -25 -31 -25 -15 0 27 129 56 174 17 25 17 26 -6 26 -13 0 -31 5 -39
10 -13 8 -12 10 4 10 15 0 16 2 6 15 -21 25 4 44 28 22 28 -26 40 -21 48 18 7
37 -14 75 -42 75 -29 0 -49 100 -23 115 6 4 8 14 5 22 -3 8 -1 24 5 35 8 16 7
33 -6 75 -14 45 -15 57 -4 63 10 7 10 11 0 24 -8 9 -11 30 -9 48 11 69 -37
145 -87 140 -16 -2 -34 -10 -38 -18 -7 -12 -13 -11 -38 6 -17 13 -37 19 -48
15 -13 -4 -20 0 -24 15 -3 11 -1 20 4 20 24 0 -85 126 -129 149 -12 7 -20 16
-17 22 4 5 0 9 -7 9 -10 0 -11 2 0 8 9 6 6 12 -12 20 -28 13 -58 56 -31 46 8
-4 15 -1 15 5 0 6 -5 11 -10 11 -6 0 -15 11 -20 25 -5 14 -15 25 -21 25 -6 0
-9 7 -5 15 3 9 -2 31 -11 51 -16 32 -16 38 -2 62 14 26 14 28 -17 58 -45 42
-53 78 -26 125 12 21 22 51 22 66 0 16 7 38 15 50 11 16 13 28 5 48 -13 34
-13 35 5 35 8 0 15 7 15 15 0 11 8 13 30 9 32 -7 38 3 18 25 -11 11 -9 13 11
8 23 -6 162 53 189 80 8 7 18 11 23 8 5 -4 9 -1 9 4 0 6 11 11 25 11 20 0 26
7 35 39 11 42 61 88 80 76 6 -4 17 -2 25 5 7 6 34 13 60 15 26 3 51 7 56 11
14 8 11 37 -7 62 -22 31 0 27 24 -4 19 -27 19 -27 48 -9 16 10 35 26 42 34 7
9 36 23 65 32 50 15 52 17 49 47 l-3 31 49 -6 c44 -5 50 -3 55 16 3 12 13 21
24 21 11 0 41 14 66 31 41 27 51 30 76 21 23 -8 32 -7 48 9 16 17 25 18 67 10
45 -8 157 6 186 24 9 6 39 -3 167 -45 29 -10 50 -14 47 -9 -10 16 36 9 83 -12
32 -15 48 -17 53 -9 5 7 14 8 33 1 32 -12 34 -26 7 -41 -22 -12 -28 -32 -8
-28 6 2 14 -5 16 -15 3 -16 -1 -17 -32 -11 -24 4 -36 2 -36 -5 0 -6 7 -11 15
-11 8 0 15 -4 15 -9 0 -4 18 -11 40 -14 21 -3 53 -15 71 -27 39 -28 79 -35 79
-13 0 8 -6 13 -13 10 -8 -3 -14 3 -14 15 -2 22 -63 89 -63 69 0 -17 -27 -13
-34 5 -17 45 44 22 96 -36 102 -114 117 -135 119 -175 1 -17 3 -22 6 -12 2 9
9 17 15 17 5 0 7 -7 4 -16 -5 -14 -4 -15 9 -4 13 11 15 8 15 -18 0 -16 8 -36
17 -43 11 -10 14 -10 9 -1 -4 6 -2 12 3 12 6 0 18 -17 26 -37 9 -21 28 -47 42
-59 15 -12 34 -45 47 -84 22 -68 54 -99 43 -42 l-6 30 45 -44 c48 -46 62 -52
81 -33 9 9 18 0 35 -37 17 -34 29 -48 41 -46 11 2 17 -4 17 -17 0 -25 20 -71
32 -71 4 0 8 10 9 23 1 21 1 21 9 -3 4 -14 8 -38 8 -55 l0 -30 -11 28 c-7 18
-18 27 -33 27 -13 0 -28 8 -33 18 -9 14 -10 13 -11 -10 0 -21 -5 -28 -20 -28
-26 0 -36 -25 -22 -53 17 -33 19 -77 4 -77 -5 0 -17 8 -28 18 -22 20 -75 45
-81 38 -3 -2 4 -12 15 -21 11 -10 18 -25 15 -36 -4 -16 0 -19 25 -19 35 0 52
-16 25 -23 -15 -4 -15 -6 4 -12 13 -4 20 -11 17 -16 -3 -5 2 -6 10 -3 17 7 22
-11 6 -21 -16 -10 -12 -25 5 -19 10 4 15 0 15 -15 0 -12 -5 -18 -12 -16 -21 8
-90 -70 -86 -96 2 -12 -3 -24 -11 -27 -9 -3 -12 0 -9 10 4 8 2 21 -3 29 -6 10
-9 7 -9 -13 0 -29 -15 -45 -25 -28 -3 5 -13 10 -22 10 -15 0 -15 -2 0 -18 13
-14 14 -21 5 -30 -9 -9 -9 -15 1 -24 12 -11 13 -9 7 7 -6 20 -6 20 9 1 25 -33
12 -96 -19 -96 -18 0 -30 -50 -17 -63 21 -21 13 -40 -14 -33 -15 4 -25 2 -25
-5 0 -13 26 -40 32 -33 3 2 17 0 30 -5 l26 -10 -3 55 c-2 30 -2 54 0 54 2 0
15 -20 28 -45 16 -27 21 -45 14 -45 -13 0 -12 -11 1 -155 8 -92 36 -140 84
-150 15 -3 42 -8 58 -11 31 -6 38 4 18 24 -8 8 -8 15 -1 24 6 7 13 30 17 51 6
30 11 37 30 37 22 0 23 -3 16 -38 -4 -21 -10 -44 -14 -50 -9 -15 2 -52 16 -52
6 0 8 9 5 21 -4 13 2 28 15 41 18 18 21 18 36 4 16 -13 20 -11 51 25 18 22 32
42 30 43 -2 2 -13 8 -23 13 -18 10 -18 11 7 24 29 16 90 92 101 126 4 12 2 41
-4 63 -9 33 -14 39 -25 30 -10 -8 -18 -4 -33 18 -12 15 -24 41 -28 58 -6 25
-5 27 8 16 29 -23 83 15 83 58 0 16 -6 25 -15 25 -17 0 -33 32 -24 46 3 5 14
9 25 9 19 0 19 7 17 178 l-3 177 -25 3 -24 4 24 13 c23 12 23 13 -16 19 -22 4
-50 3 -63 -2 -18 -6 -29 -4 -40 7 -22 22 -43 70 -35 82 3 6 1 16 -6 24 -9 10
-7 15 8 19 11 4 27 4 36 0 13 -5 15 -2 10 12 -6 17 -4 16 17 -3 14 -12 25 -32
26 -43 2 -23 -12 -27 -24 -6 -7 12 -10 12 -20 0 -11 -11 -6 -14 25 -19 20 -4
50 -11 66 -16 16 -5 33 -9 38 -9 6 0 8 144 6 355 -3 303 -5 357 -18 365 -13 8
-12 10 3 10 15 0 17 12 17 104 0 59 -4 108 -10 111 -7 4 -7 12 0 25 13 24 13
117 0 125 -5 3 -10 20 -10 37 0 32 -26 84 -46 92 -7 3 -17 -1 -23 -8 -13 -16
-61 -9 -55 8 3 7 -11 20 -31 29 -19 9 -40 28 -45 42 -15 39 -45 66 -64 59 -28
-11 -76 15 -76 42 0 13 4 24 9 24 5 0 11 11 13 24 3 16 0 23 -10 22 -9 -1 -19
16 -27 44 -13 46 -56 172 -69 202 -5 11 -2 17 8 20 15 3 14 7 -3 38 -10 19
-23 35 -29 35 -20 0 -60 65 -72 116 -7 30 -20 54 -32 60 -13 7 -17 16 -13 30
4 11 2 19 -4 19 -6 0 -11 -5 -11 -12 0 -6 -3 -8 -7 -4 -4 4 -8 15 -8 23 0 9
-12 20 -28 24 -15 4 -41 19 -58 33 -54 46 -57 35 -11 -52 24 -44 22 -72 -4
-52 -7 7 -19 10 -26 7 -8 -4 -5 -8 9 -12 13 -4 24 -18 28 -36 6 -25 9 -27 31
-18 46 17 59 5 29 -25 -9 -8 -11 -17 -6 -21 6 -3 8 -12 5 -19 -3 -8 2 -16 13
-19 17 -4 17 -4 -2 -11 -11 -4 -30 -12 -42 -18 -11 -6 -26 -8 -31 -4 -6 3 -18
-4 -27 -16 -17 -22 -17 -22 -11 22 4 25 9 55 13 68 4 17 1 22 -15 22 -20 0
-36 -25 -26 -41 3 -5 1 -9 -5 -9 -13 0 -34 77 -28 100 5 20 -9 50 -24 50 -6 0
-7 -5 -3 -11 4 -7 -2 -9 -17 -7 -30 4 -36 26 -8 30 12 2 24 9 27 16 2 7 -2 10
-12 6 -35 -13 -66 6 -92 57 -24 49 -24 50 -5 44 12 -3 21 -2 21 4 0 5 -9 13
-20 16 -18 6 -39 50 -28 61 3 2 27 -23 53 -56 40 -50 51 -58 62 -48 9 10 10
22 3 47 -11 39 3 76 26 67 22 -8 17 8 -11 34 -25 24 -25 40 2 40 9 0 13 -6 10
-15 -4 -8 -2 -17 4 -21 17 -10 21 3 9 25 -11 21 -14 21 -505 21 -271 0 -500
-3 -508 -6 -21 -8 -9 -42 17 -46 21 -3 21 -4 -2 -17 -20 -11 -26 -10 -43 5
-18 16 -20 16 -42 -3 -39 -36 -53 -37 -22 -2 17 18 34 37 39 40 35 26 -24 29
-592 27 -323 -1 -614 -4 -647 -7z m1046 -25 c20 -7 52 -11 70 -9 l34 3 -30
-11 c-16 -7 -35 -15 -40 -20 -17 -13 -105 22 -105 42 0 12 28 11 71 -5z m1194
-6 c3 -5 -1 -10 -9 -10 -9 0 -16 5 -16 10 0 6 4 10 9 10 6 0 13 -4 16 -10z
m-1070 -20 c3 -5 1 -10 -4 -10 -6 0 -11 5 -11 10 0 6 2 10 4 10 3 0 8 -4 11
-10z m265 -73 c0 -5 -37 -12 -122 -22 -37 -5 -40 -4 -23 6 11 7 24 19 28 26 6
9 22 13 42 11 19 -1 37 1 41 4 6 6 34 -14 34 -25z m-20 -46 c0 -6 -5 -13 -11
-17 -6 -3 -9 -15 -6 -25 3 -12 0 -19 -9 -19 -8 0 -14 -4 -14 -10 0 -5 -11 -10
-25 -10 -33 0 -32 7 13 51 38 38 52 46 52 30z m-70 -116 c-7 -8 -17 -15 -23
-15 -5 0 -2 9 8 20 21 23 35 19 15 -5z m-1610 -5 c0 -5 -4 -10 -10 -10 -5 0
-10 5 -10 10 0 6 5 10 10 10 6 0 10 -4 10 -10z m2745 0 c3 -5 2 -10 -4 -10 -5
0 -13 5 -16 10 -3 6 -2 10 4 10 5 0 13 -4 16 -10z m-2755 -39 c0 -5 -8 -15
-17 -22 -16 -12 -17 -12 -6 2 7 9 10 19 6 22 -3 4 -1 7 5 7 7 0 12 -4 12 -9z
m2520 -142 c0 -5 -9 -9 -19 -9 -11 0 -22 4 -25 9 -3 5 6 9 19 9 14 0 25 -4 25
-9z m180 -80 c-16 -28 5 -54 21 -26 6 9 13 15 17 13 12 -7 5 -127 -7 -139 -8
-8 -11 -7 -11 2 0 8 -6 11 -15 7 -15 -5 -15 11 0 60 2 6 -8 19 -21 29 -30 22
-30 35 -2 70 24 31 36 19 18 -16z m-117 -2 c25 -21 38 -67 19 -67 -4 0 -15
-12 -25 -27 l-17 -28 7 44 c5 38 4 43 -10 38 -12 -5 -15 1 -14 29 2 40 6 41
40 11z m-133 -48 c0 -10 7 -19 15 -19 17 0 85 -63 85 -79 0 -6 14 -26 31 -46
39 -44 33 -56 -6 -15 -16 17 -34 30 -39 30 -6 0 -16 8 -23 19 -6 10 -24 21
-40 24 -52 12 -63 28 -51 75 10 41 28 49 28 11z m390 -49 c-18 -33 -25 -15 -9
22 9 23 15 28 17 16 2 -9 -2 -27 -8 -38z m-40 -65 c7 -18 17 -25 35 -25 15 0
24 -4 20 -10 -3 -5 -1 -10 5 -10 7 0 9 -16 4 -50 -5 -34 -3 -50 5 -50 6 0 11
14 11 31 0 24 3 30 16 25 11 -4 19 3 27 24 12 32 15 34 36 21 9 -6 10 -11 2
-15 -18 -12 -12 -37 14 -58 20 -16 25 -28 25 -65 0 -45 0 -45 -23 -30 -13 8
-35 13 -50 10 -20 -4 -27 -1 -27 11 0 9 -7 16 -15 16 -9 0 -29 10 -44 21 -17
13 -34 18 -42 14 -9 -6 -9 -11 3 -19 20 -15 29 -43 22 -71 -7 -29 -44 -30 -44
-2 0 15 -5 18 -24 13 -37 -9 -38 5 -5 53 16 24 26 49 22 55 -4 6 -6 24 -4 39
1 15 -3 34 -9 42 -9 11 -7 18 7 33 23 26 22 26 33 -3z m99 -45 c0 -33 -14 -8
-23 40 -7 35 -7 35 8 10 9 -14 15 -36 15 -50z m-3503 -57 c-4 -4 -12 -1 -19 7
-9 10 -9 11 1 6 7 -4 12 -2 13 6 0 11 2 11 6 0 3 -7 2 -16 -1 -19z m3024 -59
c0 -14 -3 -14 -15 -4 -8 7 -15 14 -15 16 0 2 7 4 15 4 8 0 15 -7 15 -16z m88
-26 c-2 -15 -10 -23 -23 -23 -25 0 -32 32 -8 38 32 8 34 7 31 -15z m169 -20
c-3 -7 -5 -2 -5 12 0 14 2 19 5 13 2 -7 2 -19 0 -25z m-3367 -43 c10 -12 10
-18 0 -30 -16 -19 -30 -10 -30 21 0 27 12 31 30 9z m30 -120 c0 -8 -4 -15 -9
-15 -5 0 -14 7 -21 15 -10 13 -9 15 9 15 12 0 21 -6 21 -15z m57 -37 c-3 -8
-6 -5 -6 6 -1 11 2 17 5 13 3 -3 4 -12 1 -19z m3903 -30 c0 -16 -3 -19 -11
-11 -6 6 -8 16 -5 22 11 17 16 13 16 -11z m-110 -48 c0 -5 -4 -10 -10 -10 -5
0 -10 5 -10 10 0 6 5 10 10 10 6 0 10 -4 10 -10z m-120 -232 c0 -6 -7 -5 -15
2 -8 7 -15 17 -15 22 0 6 7 5 15 -2 8 -7 15 -17 15 -22z m255 12 c3 -5 1 -10
-4 -10 -6 0 -11 5 -11 10 0 6 2 10 4 10 3 0 8 -4 11 -10z m-4225 -30 c0 -5 -6
-9 -12 -7 -7 1 -12 -4 -10 -10 2 -14 -10 -17 -21 -6 -4 3 1 12 11 19 21 16 32
17 32 4z m3875 -70 c11 -17 -5 -32 -21 -19 -7 6 -11 15 -8 20 7 12 21 11 29
-1z m-484 -184 c9 -20 8 -19 -7 2 -9 12 -24 22 -33 22 -17 1 -51 23 -51 33 0
14 81 -37 91 -57z m274 54 c3 -5 1 -10 -4 -10 -6 0 -11 5 -11 10 0 6 2 10 4
10 3 0 8 -4 11 -10z m465 -154 c0 -11 -19 -15 -25 -6 -3 5 1 10 9 10 9 0 16
-2 16 -4z m-360 -54 c0 -7 -4 -10 -10 -7 -5 3 -10 16 -10 28 0 18 2 19 10 7 5
-8 10 -21 10 -28z m16 -71 c-13 -20 -26 -11 -26 16 0 25 1 26 16 11 9 -9 13
-21 10 -27z m-3906 -185 c0 -7 -7 -19 -15 -26 -13 -11 -15 -8 -15 14 0 16 5
26 15 26 8 0 15 -6 15 -14z m4100 -16 c0 -11 -4 -20 -9 -20 -5 0 -7 9 -4 20 3
11 7 20 9 20 2 0 4 -9 4 -20z m260 0 c0 -5 -4 -10 -10 -10 -5 0 -10 5 -10 10
0 6 5 10 10 10 6 0 10 -4 10 -10z m-4390 -50 c0 -5 -4 -10 -10 -10 -5 0 -10 5
-10 10 0 6 5 10 10 10 6 0 10 -4 10 -10z m4146 -288 c-22 -5 -30 3 -21 18 5 8
11 7 22 -2 15 -12 14 -13 -1 -16z m-3991 -92 c-3 -5 -10 -10 -16 -10 -5 0 -9
5 -9 10 0 6 7 10 16 10 8 0 12 -4 9 -10z m3885 -200 c12 -8 11 -10 -7 -10 -13
0 -23 5 -23 10 0 13 11 13 30 0z m-50 -46 c0 -2 -7 -4 -15 -4 -8 0 -15 4 -15
10 0 5 7 7 15 4 8 -4 15 -8 15 -10z m260 -54 c0 -5 -4 -10 -10 -10 -5 0 -10 5
-10 10 0 6 5 10 10 10 6 0 10 -4 10 -10z m0 -300 c0 -11 -4 -20 -8 -20 -4 0
-8 9 -8 20 0 11 4 20 8 20 4 0 8 -9 8 -20z m-13 -36 c-3 -3 -12 -4 -19 -1 -8
3 -5 6 6 6 11 1 17 -2 13 -5z m-2887 -34 c13 -9 13 -10 0 -9 -8 0 -24 4 -35 9
l-20 9 20 0 c11 0 27 -4 35 -9z m597 -74 c38 -13 83 -31 99 -40 39 -23 9 -15
-106 28 -107 39 -102 49 7 12z m-822 -32 c-136 -37 -174 -54 -217 -92 -43 -39
-67 -79 -79 -130 -10 -44 22 -195 56 -269 23 -50 28 -55 35 -38 5 11 9 37 9
57 1 38 25 73 42 62 6 -4 4 -13 -6 -24 -13 -14 -13 -19 -3 -24 10 -5 10 -7 1
-12 -7 -3 -13 -10 -13 -15 0 -6 5 -7 11 -4 15 10 93 -21 114 -45 9 -10 19 -34
20 -52 4 -44 3 -44 16 -31 9 9 19 4 42 -18 21 -21 32 -27 37 -18 15 24 30 -3
28 -52 -3 -57 -12 -68 -37 -45 -14 13 -23 14 -49 5 -18 -6 -32 -17 -32 -25 0
-8 -4 -14 -10 -14 -5 0 -10 -4 -10 -10 0 -6 29 -10 67 -10 61 0 65 -1 47 -15
-18 -14 -18 -14 4 -15 12 0 25 -7 29 -16 3 -8 12 -13 19 -10 20 8 18 -34 -3
-49 -23 -17 -8 -35 29 -35 19 0 41 -9 55 -22 l23 -22 73 19 c39 10 94 29 121
42 47 24 141 109 185 168 22 30 22 30 -1 -14 -60 -114 -246 -242 -352 -241
-118 0 -286 75 -394 175 -59 54 -80 83 -112 149 -64 135 -84 214 -84 346 -1
123 8 155 72 238 32 42 147 99 237 116 111 22 128 16 30 -10z m2935 16 c0 -5
-4 -10 -10 -10 -5 0 -10 5 -10 10 0 6 5 10 10 10 6 0 10 -4 10 -10z m-3175
-10 c-3 -5 -10 -10 -16 -10 -5 0 -9 5 -9 10 0 6 7 10 16 10 8 0 12 -4 9 -10z
m-241 -12 c-3 -4 -19 -8 -35 -8 -17 0 -28 4 -25 8 3 5 19 9 35 9 17 0 28 -4
25 -9z m166 -62 c0 -8 -12 -28 -26 -45 -21 -25 -30 -29 -55 -24 -26 5 -29 3
-23 -13 6 -17 5 -17 -9 1 -11 14 -12 24 -5 32 16 20 -2 36 -33 29 -21 -4 -29
-2 -29 9 0 17 30 35 60 35 12 0 19 4 15 10 -3 5 7 16 22 24 27 15 29 14 56
-15 15 -16 27 -36 27 -43z m1126 3 c19 -11 34 -25 34 -30 0 -11 -22 0 -60 30
-33 27 -16 27 26 0z m-1236 -120 c0 -5 -4 -9 -10 -9 -5 0 -10 7 -10 16 0 8 5
12 10 9 6 -3 10 -10 10 -16z m65 1 c-3 -5 -13 -10 -21 -10 -8 0 -12 5 -9 10 3
6 13 10 21 10 8 0 12 -4 9 -10z m1310 -69 c15 -58 -23 -12 -39 49 l-7 25 20
-25 c11 -14 23 -36 26 -49z m4 -243 c-9 -91 -29 -157 -76 -252 -82 -163 -242
-258 -454 -270 -90 -5 -92 -5 -54 8 22 8 58 15 81 15 99 2 249 69 328 146 85
84 166 270 166 382 0 33 8 60 15 51 1 -2 -1 -38 -6 -80z m-899 -68 c0 -5 -2
-10 -4 -10 -3 0 -8 5 -11 10 -3 6 -1 10 4 10 6 0 11 -4 11 -10z m80 -248 c0
-5 -7 -9 -15 -9 -8 0 -15 4 -15 9 0 4 7 8 15 8 8 0 15 -4 15 -8z m60 4 c0 -2
-9 -6 -20 -9 -11 -3 -18 -1 -14 4 5 9 34 13 34 5z m387 -232 c-3 -3 -12 -4
-19 -1 -8 3 -5 6 6 6 11 1 17 -2 13 -5z m-447 -224 c0 -5 -4 -10 -10 -10 -5 0
-10 5 -10 10 0 6 5 10 10 10 6 0 10 -4 10 -10z m950 -203 c0 -1 -4 -17 -9 -35
-9 -30 -8 -31 10 -22 11 6 19 7 18 3 -1 -4 1 -15 5 -24 4 -8 2 -29 -4 -45 -10
-26 -13 -27 -21 -11 -15 26 -37 21 -41 -10 -4 -35 -26 -41 -34 -9 -4 17 4 45
26 90 18 36 37 66 41 66 5 0 9 -1 9 -3z m-70 -27 c0 -5 -4 -10 -10 -10 -5 0
-10 5 -10 10 0 6 5 10 10 10 6 0 10 -4 10 -10z m-290 -200 c0 -5 -7 -10 -15
-10 -8 0 -15 5 -15 10 0 6 7 10 15 10 8 0 15 -4 15 -10z m80 -10 c11 -7 4 -10
-25 -9 -31 0 -36 2 -20 9 26 11 28 11 45 0z m180 -8 c0 -13 -12 -22 -22 -16
-10 6 -1 24 13 24 5 0 9 -4 9 -8z"/>
<path d="M5255 6221 c-3 -6 -11 -9 -16 -6 -5 4 -9 2 -9 -4 0 -18 17 -21 30 -6
7 9 10 18 7 21 -3 3 -8 0 -12 -5z"/>
<path d="M2420 3020 c0 -5 5 -10 10 -10 6 0 10 5 10 10 0 6 -4 10 -10 10 -5 0
-10 -4 -10 -10z"/>
<path d="M2565 2777 c-12 -9 -14 -16 -7 -21 6 -3 16 3 22 14 13 24 10 25 -15
7z"/>
<path d="M2451 6911 c-10 -6 -10 -10 -1 -16 13 -8 24 -1 19 14 -3 6 -10 7 -18
2z"/>
<path d="M2405 6890 c-6 -10 15 -50 26 -50 18 0 15 29 -3 33 -11 3 -17 10 -13
16 3 6 4 11 1 11 -3 0 -7 -4 -11 -10z"/>
<path d="M2456 6864 c-9 -22 -8 -24 9 -24 8 0 15 9 15 20 0 24 -15 27 -24 4z"/>
<path d="M5124 6834 c3 -9 6 -18 6 -20 0 -2 7 -4 15 -4 20 0 19 26 -1 34 -24
9 -27 8 -20 -10z"/>
<path d="M2392 6824 c-6 -7 -12 -16 -12 -19 0 -11 43 0 47 11 6 17 -20 23 -35
8z"/>
<path d="M5047 6711 c-3 -12 -1 -21 3 -21 15 0 23 21 12 32 -6 6 -11 2 -15
-11z"/>
<path d="M2196 6621 c-4 -7 -5 -15 -2 -18 9 -9 19 4 14 18 -4 11 -6 11 -12 0z"/>
<path d="M1798 6523 c7 -3 16 -2 19 1 4 3 -2 6 -13 5 -11 0 -14 -3 -6 -6z"/>
<path d="M1757 6509 c7 -7 15 -10 18 -7 3 3 -2 9 -12 12 -14 6 -15 5 -6 -5z"/>
<path d="M1805 6480 c-3 -5 -1 -10 4 -10 6 0 11 5 11 10 0 6 -2 10 -4 10 -3 0
-8 -4 -11 -10z"/>
<path d="M1740 6428 c0 -7 -12 -22 -27 -35 -16 -12 -22 -22 -15 -23 6 0 12 5
12 10 0 6 6 10 14 10 16 0 46 26 46 41 0 5 -7 9 -15 9 -8 0 -15 -5 -15 -12z"/>
<path d="M1800 6370 c0 -31 13 -40 26 -18 4 6 2 14 -4 16 -6 2 -8 10 -5 18 3
8 0 14 -6 14 -6 0 -11 -13 -11 -30z"/>
<path d="M1688 6313 c7 -3 16 -2 19 1 4 3 -2 6 -13 5 -11 0 -14 -3 -6 -6z"/>
<path d="M1643 6269 c-12 -32 -4 -71 17 -84 11 -7 8 34 -4 54 -3 5 2 8 11 7
10 0 19 7 21 17 2 10 -3 17 -13 17 -9 0 -13 5 -10 10 3 6 2 10 -2 10 -5 0 -14
-14 -20 -31z"/>
<path d="M1613 6162 c-1 -21 -3 -45 -5 -53 -2 -9 6 -14 25 -14 32 1 34 -6 7
-23 -23 -14 -26 -40 -7 -67 10 -13 16 -15 21 -6 4 6 2 18 -4 26 -10 12 -9 20
3 39 17 25 20 109 4 99 -5 -3 -7 -16 -4 -30 3 -18 0 -23 -12 -21 -12 3 -15 13
-13 46 1 23 -1 42 -6 42 -4 0 -8 -17 -9 -38z"/>
<path d="M1645 5779 c-4 -6 -1 -15 6 -20 21 -13 31 -11 27 8 -4 20 -24 28 -33
12z"/>
<path d="M4710 5416 c0 -8 5 -18 10 -21 6 -3 10 3 10 14 0 12 -4 21 -10 21 -5
0 -10 -6 -10 -14z"/>
<path d="M1356 5391 c-4 -7 -5 -15 -2 -18 9 -9 19 4 14 18 -4 11 -6 11 -12 0z"/>
<path d="M1406 5391 c-4 -7 -5 -15 -2 -18 9 -9 19 4 14 18 -4 11 -6 11 -12 0z"/>
<path d="M4920 5169 c7 -11 14 -19 16 -16 7 7 -7 37 -17 37 -6 0 -5 -9 1 -21z"/>
<path d="M1340 4999 c0 -5 5 -7 10 -4 6 3 10 8 10 11 0 2 -4 4 -10 4 -5 0 -10
-5 -10 -11z"/>
<path d="M5187 4943 c3 -12 16 -31 29 -44 28 -26 33 -18 7 9 -10 10 -23 27
-30 38 -11 18 -11 18 -6 -3z"/>
<path d="M5295 4810 c3 -5 11 -10 16 -10 6 0 7 5 4 10 -3 6 -11 10 -16 10 -6
0 -7 -4 -4 -10z"/>
<path d="M5320 4751 c0 -34 37 -99 61 -106 22 -7 43 5 22 12 -7 3 -13 11 -13
18 0 7 -16 32 -35 55 -29 35 -35 38 -35 21z"/>
<path d="M5440 4701 c0 -5 5 -13 10 -16 6 -3 10 -2 10 4 0 5 -4 13 -10 16 -5
3 -10 2 -10 -4z"/>
<path d="M5380 4400 c0 -5 5 -10 11 -10 5 0 7 5 4 10 -3 6 -8 10 -11 10 -2 0
-4 -4 -4 -10z"/>
<path d="M5160 4164 c0 -3 9 -17 20 -31 21 -27 27 -15 10 18 -10 18 -30 27
-30 13z"/>
<path d="M5270 4150 c0 -5 5 -10 11 -10 5 0 7 5 4 10 -3 6 -8 10 -11 10 -2 0
-4 -4 -4 -10z"/>
<path d="M5136 4105 c4 -8 8 -15 10 -15 2 0 4 7 4 15 0 8 -4 15 -10 15 -5 0
-7 -7 -4 -15z"/>
<path d="M5233 4095 c0 -9 4 -14 9 -13 5 2 10 8 10 13 0 5 -5 11 -10 13 -5 1
-9 -4 -9 -13z"/>
<path d="M4268 3910 c-9 -6 -58 -13 -110 -16 -147 -9 -168 -23 -168 -111 0
-43 3 -51 30 -66 25 -15 28 -22 23 -47 -8 -44 16 -48 111 -17 90 30 100 31 91
18 -3 -6 -43 -22 -88 -36 -67 -22 -89 -34 -112 -62 -41 -52 -39 -69 9 -66 35
2 38 1 31 -20 -15 -50 -24 -105 -24 -147 l1 -45 14 35 c18 45 57 121 48 95
-18 -51 -16 -80 8 -101 27 -24 103 -54 138 -54 14 0 45 9 69 20 24 11 51 20
61 20 9 0 27 8 38 19 15 12 44 20 91 24 94 8 133 26 170 81 18 25 37 46 42 46
6 0 30 -12 54 -26 25 -14 52 -24 62 -22 14 3 5 16 -40 60 -33 31 -73 62 -90
68 -100 39 -167 74 -155 82 8 4 -16 8 -57 9 -116 2 -24 18 140 25 77 3 147 8
155 11 47 18 -297 40 -398 25 -36 -5 -59 -5 -54 0 10 10 136 34 227 44 51 5
57 8 42 19 -27 19 -21 25 27 25 44 0 106 17 106 29 0 6 -104 61 -116 61 -4 0
-4 -11 -2 -25 4 -19 1 -25 -13 -25 -12 0 -16 -5 -13 -15 9 -23 -14 -18 -39 8
-22 23 -136 57 -190 57 -28 0 -45 16 -25 22 7 3 -7 5 -32 6 -25 1 -53 -3 -62
-8z m237 -60 c8 -13 -5 -13 -25 0 -13 8 -13 10 2 10 9 0 20 -4 23 -10z"/>
<path d="M5285 3910 c-8 -13 14 -70 26 -70 5 0 9 7 9 15 0 8 -4 15 -9 15 -5 0
-7 8 -4 19 5 21 -12 37 -22 21z"/>
<path d="M5235 3840 c-3 -5 -1 -10 4 -10 6 0 11 5 11 10 0 6 -2 10 -4 10 -3 0
-8 -4 -11 -10z"/>
<path d="M5166 3817 c3 -10 9 -15 12 -12 3 3 0 11 -7 18 -10 9 -11 8 -5 -6z"/>
<path d="M5203 3813 c-7 -3 -13 -14 -13 -25 0 -18 2 -19 18 -7 9 7 14 10 10 5
-4 -4 -2 -20 3 -33 8 -21 6 -30 -13 -47 -20 -18 -20 -21 -5 -24 9 -2 17 -8 17
-13 0 -5 5 -9 10 -9 6 0 10 7 10 16 0 10 6 14 14 11 10 -4 14 10 15 64 1 38
-2 69 -7 69 -5 0 -9 -8 -9 -17 0 -33 -3 -43 -13 -43 -5 0 -7 6 -4 13 6 17 -18
46 -33 40z"/>
<path d="M5306 3548 c5 -7 25 -34 45 -60 54 -68 64 -107 63 -228 -1 -90 -6
-117 -32 -190 -17 -46 -29 -86 -27 -89 7 -6 41 80 65 161 12 40 29 81 37 90 8
9 12 22 8 28 -4 6 -2 17 4 24 9 10 4 27 -16 68 -16 30 -36 73 -47 96 -24 52
-73 112 -92 112 -10 0 -12 -5 -8 -12z"/>
<path d="M5576 3512 c-4 -13 -5 -26 -2 -29 10 -11 18 4 14 29 l-4 23 -8 -23z"/>
<path d="M5273 3475 c-3 -9 -3 -18 0 -21 9 -9 48 16 42 27 -9 14 -35 11 -42
-6z"/>
<path d="M3967 3454 c14 -14 27 -24 29 -22 7 8 -27 48 -41 48 -9 0 -5 -9 12
-26z"/>
<path d="M1877 3449 c-9 -6 -25 -8 -35 -5 -26 8 -50 -10 -34 -26 9 -9 12 -9
12 0 0 7 9 12 20 12 27 0 25 -24 -2 -38 -19 -9 -20 -11 -5 -11 12 -1 17 -7 15
-18 -2 -10 -10 -17 -17 -15 -9 2 -9 -2 1 -20 6 -13 11 -33 9 -45 -1 -13 2 -23
8 -23 6 0 11 -9 11 -20 0 -11 5 -20 10 -20 6 0 10 -6 10 -14 0 -8 3 -17 8 -19
4 -3 7 58 7 134 0 76 0 139 0 139 0 0 -8 -5 -18 -11z"/>
<path d="M5284 3388 c-8 -12 5 -118 17 -140 21 -40 34 -19 34 55 1 67 -1 74
-22 84 -15 7 -25 8 -29 1z"/>
<path d="M3535 3229 c-10 -15 2 -23 22 -14 10 5 24 7 31 6 6 -1 12 3 12 9 0
13 -57 13 -65 -1z"/>
<path d="M4938 1793 c-34 -3 -48 -9 -52 -21 -22 -83 -31 -112 -37 -112 -4 0
-4 -12 0 -26 l7 -27 482 -1 482 -1 0 98 0 97 -417 -2 c-230 -1 -439 -3 -465
-5z m145 -80 c-24 -2 -62 -2 -85 0 -24 2 -5 4 42 4 47 0 66 -2 43 -4z m200 0
c-7 -2 -19 -2 -25 0 -7 3 -2 5 12 5 14 0 19 -2 13 -5z m95 -40 c-64 -2 -172
-2 -240 0 -68 1 -15 3 117 3 132 0 187 -2 123 -3z"/>
<path d="M3230 1700 c0 -5 7 -10 16 -10 8 0 12 5 9 10 -3 6 -10 10 -16 10 -5
0 -9 -4 -9 -10z"/>
<path d="M2955 1681 c6 -11 3 -13 -17 -8 -21 6 -28 1 -46 -32 -19 -34 -20 -40
-7 -51 23 -19 19 -39 -7 -32 -27 7 -55 37 -69 74 -15 40 -39 44 -39 8 0 -17
-4 -30 -10 -30 -5 0 -10 -7 -10 -15 0 -8 5 -15 10 -15 6 0 10 5 10 11 0 5 5 7
10 4 12 -7 14 -55 2 -55 -12 0 -50 37 -69 68 -10 15 -23 31 -30 35 -7 4 -13
15 -13 22 0 8 -5 15 -10 15 -6 0 1 -22 15 -50 14 -27 25 -56 25 -65 0 -8 11
-20 25 -25 14 -5 25 -17 25 -28 0 -19 76 -102 93 -102 5 0 7 -13 3 -31 -5 -26
-3 -30 10 -25 12 5 15 2 10 -10 -4 -12 -1 -14 13 -9 18 5 19 1 16 -47 -2 -29
-4 -56 -4 -60 -1 -5 -5 -8 -9 -8 -12 0 -32 47 -32 75 0 25 -14 33 -25 15 -3
-5 -14 -10 -24 -10 -21 0 -36 -15 -45 -46 -6 -18 2 -27 49 -53 30 -17 61 -40
67 -51 7 -11 23 -20 35 -20 13 0 33 -11 45 -25 31 -35 131 -85 157 -78 12 3
21 1 21 -5 0 -13 54 -32 90 -32 19 0 30 7 38 25 14 31 37 32 53 3 11 -20 10
-21 -3 -11 -14 12 -28 8 -28 -8 0 -4 20 -15 44 -24 38 -15 57 -16 132 -7 62 7
92 7 105 -1 13 -8 24 -8 43 1 34 15 33 29 -4 37 -16 4 -30 11 -30 16 0 16 -29
10 -39 -8 -9 -16 -12 -16 -21 -3 -5 8 -10 22 -10 31 0 24 -28 31 -40 11 -7
-12 -12 -14 -17 -5 -5 6 -15 11 -23 11 -42 -3 -50 2 -49 30 1 16 3 20 6 10 2
-10 13 -18 24 -18 23 0 25 15 4 24 -11 4 -15 22 -15 71 0 58 2 65 20 65 15 0
20 7 20 24 0 33 -16 41 -32 16 -7 -11 -18 -20 -25 -20 -7 0 -13 -6 -14 -12 0
-7 -5 -2 -10 12 -12 30 6 84 21 61 11 -18 23 19 14 43 -4 11 3 25 20 41 15 14
30 25 33 25 4 0 15 7 25 17 11 9 18 11 18 5 0 -15 35 -16 60 -2 14 7 23 6 34
-5 8 -8 19 -15 25 -15 23 0 60 24 64 42 3 11 10 17 17 13 16 -10 60 36 61 65
0 14 3 19 6 12 4 -10 8 -10 19 -1 11 9 15 8 20 -5 11 -30 23 -16 12 14 -7 23
-15 29 -28 25 -9 -3 -23 1 -30 10 -7 8 -17 15 -23 15 -5 0 -16 8 -23 18 -10
14 -29 17 -118 17 -58 0 -106 2 -106 5 0 7 -196 3 -209 -4 -6 -4 -48 -8 -93
-10 -46 -3 -88 -5 -95 -5 -7 -1 -24 -12 -39 -26 -31 -29 -45 -28 -59 3 -5 12
-13 22 -17 22 -15 0 -8 19 9 22 14 3 14 5 -2 18 -15 12 -17 12 -10 1z m335
-279 c0 -10 -6 -24 -12 -30 -10 -10 -10 -17 0 -33 17 -26 6 -42 -23 -35 -14 4
-25 1 -28 -7 -4 -7 -6 -6 -6 5 -1 20 49 118 60 118 5 0 9 -8 9 -18z m40 -47
c0 -8 -4 -15 -10 -15 -5 0 -7 7 -4 15 4 8 8 15 10 15 2 0 4 -7 4 -15z m-290
-25 c0 -5 -5 -10 -11 -10 -5 0 -7 5 -4 10 3 6 8 10 11 10 2 0 4 -4 4 -10z
m-92 -55 c-3 -3 -9 2 -12 12 -6 14 -5 15 5 6 7 -7 10 -15 7 -18z m-108 6 c0
-6 -4 -13 -10 -16 -5 -3 -10 1 -10 9 0 9 5 16 10 16 6 0 10 -4 10 -9z m457
-23 c-3 -7 -5 -2 -5 12 0 14 2 19 5 13 2 -7 2 -19 0 -25z m-297 -15 c0 -9 8
-22 18 -29 9 -7 12 -14 5 -14 -12 0 -53 47 -53 61 0 5 7 6 15 3 8 -4 15 -13
15 -21z m123 -111 c9 -8 17 -21 17 -29 0 -16 5 -16 29 -3 15 7 20 4 29 -15 7
-14 16 -25 20 -25 5 0 9 -13 8 -30 -1 -34 -5 -36 -31 -16 -12 8 -16 20 -12 35
8 31 -10 26 -21 -6 -7 -18 -11 -22 -11 -10 -1 10 -9 17 -22 17 -28 0 -79 56
-79 86 0 21 3 24 28 18 15 -4 35 -14 45 -22z m267 -124 c0 -7 -5 -20 -10 -28
-8 -13 -11 -13 -22 -1 -10 10 -10 12 0 7 8 -5 12 0 12 13 0 12 5 21 10 21 6 0
10 -6 10 -12z"/>
<path d="M4690 1640 c-19 -6 -16 -8 18 -5 23 1 45 5 49 9 9 8 -36 6 -67 -4z"/>
<path d="M4610 1630 c0 -5 11 -10 25 -10 14 0 25 5 25 10 0 6 -11 10 -25 10
-14 0 -25 -4 -25 -10z"/>
<path d="M5004 1560 c-45 -4 -87 -11 -95 -16 -8 -4 -26 -7 -41 -5 -16 1 -28
-2 -28 -8 0 -14 -14 -12 135 -21 72 -4 180 -12 240 -18 61 -6 221 -13 358 -15
l247 -3 0 48 0 48 -367 -1 c-203 -1 -404 -5 -449 -9z"/>
<path d="M2526 1525 c-18 -19 -30 -109 -21 -167 17 -109 121 -438 158 -498 35
-58 117 -139 203 -201 88 -63 96 -67 224 -114 49 -18 84 -36 83 -43 -2 -8 15
-12 55 -12 31 0 94 -3 140 -7 55 -4 82 -2 82 5 0 5 -24 13 -52 17 -29 3 -75
12 -103 20 -27 7 -68 16 -90 20 -75 12 -282 117 -380 191 -77 58 -123 119
-160 210 -27 64 -30 122 -15 238 5 42 5 78 -1 94 -5 14 -11 50 -13 81 -4 72
-14 108 -32 115 -8 3 -14 19 -14 36 0 25 -4 30 -24 30 -14 0 -31 -7 -40 -15z"/>
<path d="M2257 1511 c-17 -6 -17 -8 -4 -19 12 -10 18 -10 31 3 9 9 16 18 16
21 0 6 -22 4 -43 -5z"/>
<path d="M2262 1448 c-13 -33 -18 -130 -8 -147 4 -7 3 -18 -4 -26 -9 -10 -6
-23 10 -54 17 -35 18 -42 6 -47 -8 -3 -20 -3 -26 1 -5 3 -10 2 -10 -4 0 -6 13
-17 29 -25 31 -16 61 -84 61 -138 0 -16 7 -31 15 -34 8 -3 28 -42 45 -87 31
-80 97 -194 106 -184 3 3 -9 28 -27 56 -17 29 -28 55 -25 59 4 3 11 0 16 -8
24 -37 6 12 -26 75 -29 55 -39 91 -49 170 -12 88 -15 125 -16 225 0 14 -8 33
-16 42 -9 10 -13 24 -9 33 3 9 2 14 -3 11 -13 -8 -30 16 -45 65 l-13 44 -11
-27z"/>
<path d="M2689 1398 c-41 -34 -41 -44 -6 -82 38 -40 57 -46 57 -17 0 15 8 21
32 23 l33 3 -25 23 c-29 27 -40 28 -47 2 -9 -33 -22 -12 -16 25 6 37 -3 44
-28 23z"/>
<path d="M5680 1350 l-115 -5 49 -23 c41 -19 144 -41 194 -42 16 0 13 73 -3
75 -5 0 -62 -2 -125 -5z"/>
<path d="M3435 1150 c-3 -5 -12 -7 -20 -3 -8 3 -15 1 -15 -5 0 -5 9 -12 19
-15 13 -3 21 1 24 14 6 20 2 25 -8 9z"/>
<path d="M3660 984 c0 -9 5 -14 12 -12 18 6 21 28 4 28 -9 0 -16 -7 -16 -16z"/>
<path d="M1357 803 c-12 -11 -8 -103 5 -126 14 -26 17 -89 5 -98 -5 -4 -4 -16
3 -28 6 -12 10 -35 8 -51 -1 -17 5 -36 16 -49 11 -12 15 -21 9 -21 -14 0 -34
-47 -27 -65 7 -17 17 -19 89 -15 56 2 66 7 45 20 -21 13 -19 29 6 71 21 33 21
38 8 58 -8 11 -12 26 -9 31 3 6 -1 10 -10 10 -23 0 -30 28 -11 49 10 11 17 39
19 77 2 58 1 59 -25 62 -16 2 -28 -1 -28 -7 0 -15 -58 47 -65 70 -6 19 -26 25
-38 12z m53 -93 c0 -5 -4 -10 -10 -10 -5 0 -10 5 -10 10 0 6 5 10 10 10 6 0
10 -4 10 -10z"/>
<path d="M1615 800 c3 -5 8 -10 11 -10 2 0 4 5 4 10 0 6 -5 10 -11 10 -5 0 -7
-4 -4 -10z"/>
<path d="M1709 789 c-8 -15 -18 -20 -35 -16 -20 4 -24 1 -18 -12 8 -19 8 -27
-3 -109 -5 -35 -16 -68 -25 -75 -23 -18 -40 -74 -24 -80 7 -3 16 -19 19 -36 4
-17 12 -31 18 -31 7 0 17 -7 23 -15 10 -13 13 -13 24 5 11 19 10 21 -18 26
-43 9 -28 22 24 20 37 -1 46 2 50 19 9 31 7 34 -14 28 -25 -7 -25 -2 -1 40 11
19 25 45 33 58 7 13 18 31 25 39 6 8 14 27 18 41 5 22 0 29 -35 53 -31 20 -41
33 -37 47 7 26 -9 24 -24 -2z"/>
<path d="M1620 730 c0 -5 5 -10 11 -10 5 0 7 5 4 10 -3 6 -8 10 -11 10 -2 0
-4 -4 -4 -10z"/>
<path d="M2240 663 c0 -5 4 -15 10 -23 11 -18 25 -7 17 15 -6 15 -27 21 -27 8z"/>
<path d="M2500 659 c0 -9 9 -24 20 -34 26 -23 26 -4 0 26 -15 18 -19 20 -20 8z"/>
<path d="M1190 633 c0 -16 16 -28 38 -29 27 -1 28 4 5 22 -20 15 -43 18 -43 7z"/>
<path d="M1832 560 c2 -19 8 -34 13 -33 17 3 17 27 0 48 -15 19 -15 18 -13
-15z"/>
<path d="M2630 484 c0 -4 11 -17 25 -30 29 -27 33 -19 6 14 -19 22 -31 28 -31
16z"/>
<path d="M3508 483 c12 -2 30 -2 40 0 9 3 -1 5 -23 4 -22 0 -30 -2 -17 -4z"/>
<path d="M2700 412 c0 -12 19 -26 26 -19 2 2 -2 10 -11 17 -9 8 -15 8 -15 2z"/>
<path d="M2306 376 c4 -79 44 -142 72 -114 18 18 14 28 -8 28 -23 0 -26 10 -8
28 9 9 7 13 -5 18 -9 3 -17 16 -17 28 0 20 -17 46 -30 46 -3 0 -5 -15 -4 -34z"/>
<path d="M1625 380 c3 -5 8 -10 11 -10 2 0 4 5 4 10 0 6 -5 10 -11 10 -5 0 -7
-4 -4 -10z"/>
<path d="M1668 383 c6 -2 18 -2 25 0 6 3 1 5 -13 5 -14 0 -19 -2 -12 -5z"/>
</g>
</svg>
